<svg width="48" height="18" viewBox="0 0 48 18" fill="none" xmlns="http://www.w3.org/2000/svg">
<path d="M24 1.472C11.744 1.472 1.81 4.86 1.81 9.004C1.81 13.148 11.744 16.534 24 16.534C36.254 16.534 46.188 13.148 46.188 9.004C46.188 4.858 36.254 1.472 24 1.472ZM12.604 13.952C11.292 13.962 10.138 13.152 10.004 11.75C9.92784 11.0195 10.1387 10.2879 10.592 9.71C10.982 9.202 11.642 8.78 12.2 8.676C12.38 8.642 12.626 8.664 12.728 8.784C12.886 8.97 12.84 9.172 12.682 9.252C12.256 9.47 11.742 9.842 11.488 10.352C11.3717 10.5683 11.3165 10.8122 11.3285 11.0575C11.3405 11.3027 11.4191 11.5401 11.556 11.744C12.082 12.538 13.55 12.56 14.914 11.294C15.252 10.982 15.554 10.686 15.86 10.334C16.46 9.646 16.66 9.394 17.46 8.286C17.47 8.274 17.472 8.258 17.468 8.25C17.462 8.236 17.45 8.23 17.428 8.23C16.894 8.244 16.428 8.404 15.978 8.74C15.848 8.836 15.66 8.822 15.578 8.698C15.486 8.558 15.552 8.372 15.702 8.268C16.428 7.762 17.222 7.672 18.034 7.534C18.034 7.534 18.09 7.538 18.136 7.474C18.47 7.048 18.72 6.664 19.076 6.232C19.432 5.792 19.896 5.392 20.248 5.088C20.74 4.664 21.056 4.522 21.376 4.348C21.462 4.304 21.366 4.25 21.34 4.25C19.548 3.914 17.686 3.478 15.906 4.138C14.674 4.598 14.132 5.574 14.392 6.228C14.578 6.69 15.186 6.768 15.758 6.488C16.2554 6.24131 16.6775 5.86556 16.98 5.4C17.154 5.132 17.52 5.324 17.322 5.79C16.802 7.012 15.808 7.984 14.596 8.026C13.564 8.058 12.898 7.3 12.9 6.364C12.904 4.516 14.96 3.3 17.12 3.12C19.722 2.904 22.186 3.598 24.77 3.91C26.748 4.15 28.646 4.156 30.634 3.698C30.87 3.648 31.034 3.798 31.02 4.034C31 4.378 30.734 4.708 30.08 5.066C29.334 5.474 28.554 5.598 27.74 5.606C25.772 5.622 23.938 4.854 22.04 4.442C22.044 4.524 22.064 4.624 21.994 4.676C20.944 5.452 19.994 6.24 19.358 7.344C19.336 7.37 19.348 7.394 19.384 7.392C19.938 7.362 20.434 7.348 20.95 7.308C21.04 7.3 21.044 7.278 21.036 7.212C21.0077 7.00751 21.0294 6.79923 21.099 6.6049C21.1687 6.41057 21.2843 6.23598 21.436 6.096C21.78 5.79 22.21 5.756 22.496 5.976C22.816 6.228 22.79 6.682 22.612 7.022C22.5328 7.17131 22.4243 7.30314 22.293 7.40966C22.1618 7.51617 22.0104 7.59519 21.848 7.642C21.848 7.642 21.788 7.654 21.796 7.71C21.808 7.796 22.196 8.012 22.23 8.07C22.264 8.124 22.246 8.21 22.188 8.274C22.1649 8.30211 22.136 8.32476 22.1031 8.34032C22.0702 8.35588 22.0344 8.36397 21.998 8.364C21.932 8.364 21.892 8.34 21.806 8.294C21.6001 8.18483 21.4169 8.03755 21.266 7.86C21.218 7.798 21.192 7.796 21.068 7.802C20.51 7.836 19.64 7.92 19.05 7.994C18.908 8.01 18.886 8.038 18.858 8.088C17.918 9.638 16.914 11.308 15.812 12.428C14.628 13.628 13.646 13.944 12.604 13.952ZM38.1 6.42C37.918 6.736 34.402 12.088 34.18 12.64C34.11 12.816 34.1 12.95 34.172 13.048C34.356 13.296 34.766 13.15 35.022 12.972C35.784 12.448 36.312 11.812 36.896 11.256C36.93 11.23 36.988 11.22 37.026 11.256C37.112 11.336 37.238 11.438 37.326 11.53C37.3338 11.5372 37.3401 11.5458 37.3446 11.5555C37.349 11.5651 37.3515 11.5756 37.3519 11.5862C37.3523 11.5968 37.3505 11.6074 37.3468 11.6173C37.343 11.6272 37.3373 11.6363 37.33 11.644C36.7957 12.3156 36.1894 12.9265 35.522 13.466C34.582 14.194 33.644 14.38 33.178 13.914C33.0137 13.7425 32.9146 13.5189 32.898 13.282C32.894 13.168 32.836 13.162 32.782 13.214C32.226 13.764 31.262 14.372 30.386 13.938C29.654 13.578 29.484 12.702 29.62 11.966C29.622 11.95 29.608 11.846 29.518 11.906C29.3333 12.0403 29.1316 12.1492 28.918 12.23C28.6884 12.3349 28.4384 12.3875 28.186 12.384C28.0045 12.3861 27.8256 12.3404 27.6673 12.2516C27.509 12.1628 27.3768 12.034 27.284 11.878C27.166 11.6652 27.1008 11.4272 27.094 11.184C27.092 11.162 27.06 11.12 27.028 11.174C26.428 12.088 25.87 12.972 25.278 13.9C25.246 13.944 25.218 13.972 25.158 13.974L23.984 13.976C23.912 13.976 23.878 13.92 23.916 13.85C24.124 13.45 25.264 11.79 26.036 10.378C26.25 9.99 26.206 9.79 26.074 9.704C25.908 9.596 25.578 9.758 25.3 9.97C24.542 10.544 23.906 11.44 23.582 11.84C23.392 12.074 23.212 12.422 22.716 12.96C21.934 13.81 20.896 14.298 19.9 13.96C19.6369 13.8709 19.3997 13.7185 19.2093 13.5162C19.0189 13.3139 18.8811 13.068 18.808 12.8C18.778 12.696 18.72 12.668 18.662 12.736C18.502 12.936 18.172 13.234 17.896 13.42C17.866 13.442 17.792 13.486 17.728 13.454C17.6076 13.3371 17.5052 13.2029 17.424 13.056C17.4119 13.0293 17.4085 12.9996 17.4143 12.9709C17.42 12.9422 17.4346 12.916 17.456 12.896C17.85 12.55 18.066 12.354 18.238 12.136C18.366 11.976 18.464 11.796 18.578 11.506C18.818 10.902 19.364 9.774 20.454 9.19C20.8567 8.962 21.2993 8.81331 21.758 8.752C21.958 8.732 22.124 8.756 22.184 8.912C22.206 8.978 22.262 9.122 22.296 9.228C22.318 9.292 22.302 9.342 22.226 9.37C21.586 9.614 20.94 9.992 20.496 10.59C19.99 11.266 19.854 12.082 20.192 12.55C20.438 12.89 20.836 12.95 21.22 12.828C21.8 12.644 22.296 12.102 22.552 11.502C22.828 10.844 22.872 10.068 22.668 9.384C22.636 9.266 22.666 9.176 22.742 9.112C22.896 8.986 23.11 8.888 23.172 8.856C23.2331 8.82333 23.3041 8.81445 23.3713 8.83107C23.4385 8.8477 23.4972 8.88864 23.536 8.946C23.748 9.26 23.862 9.702 23.876 10.16C23.888 10.258 23.928 10.26 23.976 10.21C24.356 9.806 24.708 9.374 25.112 9.05C25.482 8.756 25.956 8.516 26.398 8.526C26.97 8.538 27.254 8.926 27.236 9.618C27.234 9.706 27.296 9.698 27.338 9.64C27.4706 9.44088 27.6324 9.26288 27.818 9.112C28.214 8.786 28.618 8.64 29.04 8.668C29.56 8.708 29.976 9.182 29.89 9.722C29.8693 9.89279 29.8072 10.056 29.7093 10.1974C29.6114 10.3389 29.4805 10.4544 29.328 10.534C29.1997 10.6023 29.0539 10.6305 28.9094 10.6148C28.765 10.5991 28.6286 10.5403 28.518 10.446C28.4323 10.365 28.3694 10.2628 28.3357 10.1497C28.302 10.0367 28.2987 9.91675 28.326 9.802C28.336 9.752 28.272 9.706 28.218 9.762C27.71 10.29 27.672 10.974 28.004 11.282C28.37 11.622 28.92 11.394 29.32 11.132C30.052 10.654 30.62 10.006 31.278 9.506C31.714 9.174 32.212 8.878 32.77 8.804C33.0765 8.75714 33.39 8.79305 33.678 8.908C34.078 9.07 34.33 9.408 34.362 9.7C34.37 9.786 34.434 9.796 34.488 9.72C34.804 9.228 36.498 6.686 36.638 6.42C36.678 6.338 36.726 6.326 36.816 6.326H38.028C38.098 6.326 38.13 6.366 38.1 6.42ZM33.46 10.828C33.4476 10.8528 33.4454 10.8816 33.454 10.908C33.46 10.948 33.514 10.988 33.566 11.008C33.586 11.014 33.596 11.028 33.574 11.072C33.424 11.392 33.288 11.576 33.1 11.854C32.9339 12.0996 32.7316 12.3188 32.5 12.504C32.144 12.798 31.652 13.118 31.244 12.904C31.064 12.81 30.984 12.556 30.99 12.352C30.998 11.776 31.254 11.184 31.728 10.602C32.304 9.892 32.942 9.524 33.36 9.726C33.792 9.932 33.656 10.436 33.46 10.828ZM21.562 7.066C21.547 6.93821 21.5631 6.80869 21.6091 6.68852C21.6551 6.56835 21.7295 6.46111 21.826 6.376C21.94 6.276 22.092 6.252 22.186 6.332C22.29 6.422 22.24 6.646 22.134 6.8C22.0189 6.97341 21.8448 7.09918 21.644 7.154C21.608 7.162 21.576 7.146 21.562 7.066ZM24 0C10.68 0 0 3.994 0 9C0 13.976 10.766 18 24 18C37.234 18 48 13.96 48 9C48 4.04 37.234 0 24 0ZM24 17.216C11.298 17.216 1 13.54 1 9.004C1 4.466 11.3 0.79 24 0.79C36.7 0.79 46.996 4.466 46.996 9.004C46.996 13.54 36.7 17.216 24 17.216Z" fill="black"/>
</svg>
